<mxfile host="65bd71144e">
    <diagram id="OUF3Tba1tC0PUzbalyhK" name="Page-1">
        <mxGraphModel dx="6329" dy="1366" grid="1" gridSize="10" guides="1" tooltips="1" connect="1" arrows="1" fold="1" page="1" pageScale="1" pageWidth="3300" pageHeight="4681" math="0" shadow="0">
            <root>
                <mxCell id="0"/>
                <mxCell id="1" parent="0"/>
                <mxCell id="12" style="edgeStyle=none;html=1;entryX=0.5;entryY=0;entryDx=0;entryDy=0;strokeColor=#18F000;" parent="1" source="2" target="3" edge="1">
                    <mxGeometry relative="1" as="geometry"/>
                </mxCell>
                <mxCell id="2" value="Employee" style="rounded=0;whiteSpace=wrap;html=1;strokeColor=#18F000;" parent="1" vertex="1">
                    <mxGeometry x="170" y="280" width="160" height="60" as="geometry"/>
                </mxCell>
                <mxCell id="13" style="edgeStyle=none;html=1;entryX=0.5;entryY=0;entryDx=0;entryDy=0;strokeColor=#18F000;" parent="1" source="3" target="9" edge="1">
                    <mxGeometry relative="1" as="geometry"/>
                </mxCell>
                <mxCell id="3" value="Gửi email" style="rounded=0;whiteSpace=wrap;html=1;strokeColor=#18F000;" parent="1" vertex="1">
                    <mxGeometry x="190" y="400" width="120" height="60" as="geometry"/>
                </mxCell>
                <mxCell id="14" style="edgeStyle=none;html=1;entryX=0.5;entryY=0;entryDx=0;entryDy=0;strokeColor=#18F000;" parent="1" source="9" target="24" edge="1">
                    <mxGeometry relative="1" as="geometry">
                        <mxPoint x="610" y="560" as="targetPoint"/>
                        <Array as="points">
                            <mxPoint x="539" y="560"/>
                        </Array>
                    </mxGeometry>
                </mxCell>
                <mxCell id="15" value="Gửi set time" style="edgeLabel;html=1;align=center;verticalAlign=middle;resizable=0;points=[];strokeColor=#18F000;" parent="14" vertex="1" connectable="0">
                    <mxGeometry x="-0.3037" y="3" relative="1" as="geometry">
                        <mxPoint as="offset"/>
                    </mxGeometry>
                </mxCell>
                <mxCell id="19" style="edgeStyle=none;html=1;exitX=0.5;exitY=1;exitDx=0;exitDy=0;entryX=0;entryY=0.5;entryDx=0;entryDy=0;strokeColor=#18F000;" parent="1" source="9" target="22" edge="1">
                    <mxGeometry relative="1" as="geometry">
                        <mxPoint x="250.29411764705878" y="710" as="targetPoint"/>
                        <Array as="points">
                            <mxPoint x="250" y="860"/>
                        </Array>
                    </mxGeometry>
                </mxCell>
                <mxCell id="20" value="Send now&lt;br&gt;" style="edgeLabel;html=1;align=center;verticalAlign=middle;resizable=0;points=[];strokeColor=#18F000;" parent="19" vertex="1" connectable="0">
                    <mxGeometry x="0.1774" y="-4" relative="1" as="geometry">
                        <mxPoint as="offset"/>
                    </mxGeometry>
                </mxCell>
                <mxCell id="9" value="&lt;span&gt;Gửi email&lt;/span&gt;" style="rhombus;whiteSpace=wrap;html=1;strokeColor=#18F000;" parent="1" vertex="1">
                    <mxGeometry x="210" y="520" width="80" height="80" as="geometry"/>
                </mxCell>
                <mxCell id="28" style="edgeStyle=none;html=1;entryX=0;entryY=0.5;entryDx=0;entryDy=0;strokeColor=#18F000;" parent="1" source="21" target="27" edge="1">
                    <mxGeometry relative="1" as="geometry"/>
                </mxCell>
                <mxCell id="40" style="edgeStyle=none;html=1;exitX=0.75;exitY=1;exitDx=0;exitDy=0;entryX=0.5;entryY=0;entryDx=0;entryDy=0;strokeColor=#18F000;" parent="1" source="21" target="42" edge="1">
                    <mxGeometry relative="1" as="geometry">
                        <mxPoint x="570.2941176470588" y="990" as="targetPoint"/>
                    </mxGeometry>
                </mxCell>
                <mxCell id="21" value="Pending" style="rounded=0;whiteSpace=wrap;html=1;strokeColor=#18F000;" parent="1" vertex="1">
                    <mxGeometry x="480" y="750" width="120" height="60" as="geometry"/>
                </mxCell>
                <mxCell id="26" style="edgeStyle=none;html=1;exitX=1;exitY=0.5;exitDx=0;exitDy=0;entryX=0.5;entryY=1;entryDx=0;entryDy=0;strokeColor=#18F000;" parent="1" source="22" target="21" edge="1">
                    <mxGeometry relative="1" as="geometry">
                        <Array as="points">
                            <mxPoint x="540" y="860"/>
                        </Array>
                    </mxGeometry>
                </mxCell>
                <mxCell id="22" value="sent_at = now" style="rounded=0;whiteSpace=wrap;html=1;strokeColor=#18F000;" parent="1" vertex="1">
                    <mxGeometry x="280" y="830" width="120" height="60" as="geometry"/>
                </mxCell>
                <mxCell id="25" style="edgeStyle=none;html=1;strokeColor=#18F000;" parent="1" source="24" target="21" edge="1">
                    <mxGeometry relative="1" as="geometry"/>
                </mxCell>
                <mxCell id="24" value="sent_at = now" style="rounded=0;whiteSpace=wrap;html=1;strokeColor=#18F000;" parent="1" vertex="1">
                    <mxGeometry x="480" y="630" width="120" height="60" as="geometry"/>
                </mxCell>
                <mxCell id="30" style="edgeStyle=none;html=1;entryX=0.5;entryY=0;entryDx=0;entryDy=0;strokeColor=#18F000;" parent="1" source="27" target="32" edge="1">
                    <mxGeometry relative="1" as="geometry">
                        <mxPoint x="755" y="1041.88232421875" as="targetPoint"/>
                    </mxGeometry>
                </mxCell>
                <mxCell id="31" value="True" style="edgeLabel;html=1;align=center;verticalAlign=middle;resizable=0;points=[];strokeColor=#18F000;" parent="30" vertex="1" connectable="0">
                    <mxGeometry x="-0.3547" y="-4" relative="1" as="geometry">
                        <mxPoint as="offset"/>
                    </mxGeometry>
                </mxCell>
                <mxCell id="33" style="edgeStyle=none;html=1;strokeColor=#18F000;" parent="1" source="27" edge="1">
                    <mxGeometry relative="1" as="geometry">
                        <mxPoint x="1030" y="780" as="targetPoint"/>
                    </mxGeometry>
                </mxCell>
                <mxCell id="34" value="false" style="edgeLabel;html=1;align=center;verticalAlign=middle;resizable=0;points=[];strokeColor=#18F000;" parent="33" vertex="1" connectable="0">
                    <mxGeometry x="0.2095" y="3" relative="1" as="geometry">
                        <mxPoint as="offset"/>
                    </mxGeometry>
                </mxCell>
                <mxCell id="27" value="Sent_at &amp;gt; now" style="rhombus;whiteSpace=wrap;html=1;strokeColor=#18F000;" parent="1" vertex="1">
                    <mxGeometry x="690" y="740" width="130" height="80" as="geometry"/>
                </mxCell>
                <mxCell id="32" value="Người dùng có thể hủy email khi nhấn cancel" style="whiteSpace=wrap;html=1;aspect=fixed;strokeColor=#18F000;" parent="1" vertex="1">
                    <mxGeometry x="705" y="950" width="105" height="105" as="geometry"/>
                </mxCell>
                <mxCell id="35" value="Không hiện cancel" style="rounded=0;whiteSpace=wrap;html=1;strokeColor=#18F000;" parent="1" vertex="1">
                    <mxGeometry x="1030" y="750" width="120" height="60" as="geometry"/>
                </mxCell>
                <mxCell id="43" style="edgeStyle=none;html=1;entryX=1;entryY=0.5;entryDx=0;entryDy=0;strokeColor=#18F000;" parent="1" source="42" target="47" edge="1">
                    <mxGeometry relative="1" as="geometry">
                        <mxPoint x="260" y="1030" as="targetPoint"/>
                        <Array as="points">
                            <mxPoint x="350" y="1030"/>
                            <mxPoint x="320" y="1030"/>
                        </Array>
                    </mxGeometry>
                </mxCell>
                <mxCell id="44" value="APPROVED" style="edgeLabel;html=1;align=center;verticalAlign=middle;resizable=0;points=[];strokeColor=#18F000;" parent="43" vertex="1" connectable="0">
                    <mxGeometry x="-0.2824" y="3" relative="1" as="geometry">
                        <mxPoint as="offset"/>
                    </mxGeometry>
                </mxCell>
                <mxCell id="45" style="edgeStyle=none;html=1;entryX=0.5;entryY=0;entryDx=0;entryDy=0;strokeColor=#18F000;" parent="1" source="42" target="48" edge="1">
                    <mxGeometry relative="1" as="geometry">
                        <mxPoint x="570" y="1230" as="targetPoint"/>
                    </mxGeometry>
                </mxCell>
                <mxCell id="46" value="DECLINED" style="edgeLabel;html=1;align=center;verticalAlign=middle;resizable=0;points=[];strokeColor=#18F000;" parent="45" vertex="1" connectable="0">
                    <mxGeometry x="-0.2625" y="2" relative="1" as="geometry">
                        <mxPoint as="offset"/>
                    </mxGeometry>
                </mxCell>
                <mxCell id="77" style="edgeStyle=none;html=1;entryX=0.5;entryY=1;entryDx=0;entryDy=0;strokeColor=#18F000;" parent="1" source="42" target="75" edge="1">
                    <mxGeometry relative="1" as="geometry">
                        <Array as="points">
                            <mxPoint x="340" y="1030"/>
                        </Array>
                    </mxGeometry>
                </mxCell>
                <mxCell id="42" value="Manager approve" style="rhombus;whiteSpace=wrap;html=1;strokeColor=#18F000;" parent="1" vertex="1">
                    <mxGeometry x="490" y="990" width="160" height="80" as="geometry"/>
                </mxCell>
                <mxCell id="52" style="edgeStyle=none;html=1;strokeColor=#18F000;" parent="1" source="47" target="53" edge="1">
                    <mxGeometry relative="1" as="geometry">
                        <mxPoint x="165" y="1310" as="targetPoint"/>
                    </mxGeometry>
                </mxCell>
                <mxCell id="47" value="Hiện modal có approved now&lt;br&gt;và Approved set time, input chọn số phút" style="rounded=0;whiteSpace=wrap;html=1;strokeColor=#18F000;" parent="1" vertex="1">
                    <mxGeometry x="80" y="1000" width="170" height="70" as="geometry"/>
                </mxCell>
                <mxCell id="48" value="Email Status declined" style="rounded=0;whiteSpace=wrap;html=1;strokeColor=#18F000;" parent="1" vertex="1">
                    <mxGeometry x="495" y="1250" width="150" height="60" as="geometry"/>
                </mxCell>
                <mxCell id="54" style="edgeStyle=none;html=1;strokeColor=#18F000;" parent="1" source="53" target="56" edge="1">
                    <mxGeometry relative="1" as="geometry">
                        <mxPoint x="160" y="1390" as="targetPoint"/>
                    </mxGeometry>
                </mxCell>
                <mxCell id="55" value="true" style="edgeLabel;html=1;align=center;verticalAlign=middle;resizable=0;points=[];strokeColor=#18F000;" parent="54" vertex="1" connectable="0">
                    <mxGeometry x="-0.3955" y="-1" relative="1" as="geometry">
                        <mxPoint as="offset"/>
                    </mxGeometry>
                </mxCell>
                <mxCell id="57" style="edgeStyle=none;html=1;strokeColor=#18F000;" parent="1" source="53" target="58" edge="1">
                    <mxGeometry relative="1" as="geometry">
                        <mxPoint x="350" y="1360" as="targetPoint"/>
                        <Array as="points">
                            <mxPoint x="330" y="1200"/>
                        </Array>
                    </mxGeometry>
                </mxCell>
                <mxCell id="53" value="Is Send now" style="rhombus;whiteSpace=wrap;html=1;strokeColor=#18F000;" parent="1" vertex="1">
                    <mxGeometry x="115" y="1160" width="95" height="80" as="geometry"/>
                </mxCell>
                <mxCell id="60" style="edgeStyle=none;html=1;entryX=0;entryY=0.5;entryDx=0;entryDy=0;strokeColor=#18F000;" parent="1" source="56" target="59" edge="1">
                    <mxGeometry relative="1" as="geometry">
                        <Array as="points">
                            <mxPoint x="140" y="1550"/>
                        </Array>
                    </mxGeometry>
                </mxCell>
                <mxCell id="56" value="Send_after = 0" style="rounded=0;whiteSpace=wrap;html=1;strokeColor=#18F000;" parent="1" vertex="1">
                    <mxGeometry x="100" y="1360" width="120" height="60" as="geometry"/>
                </mxCell>
                <mxCell id="61" style="edgeStyle=none;html=1;entryX=0.579;entryY=-0.025;entryDx=0;entryDy=0;entryPerimeter=0;strokeColor=#18F000;" parent="1" source="58" target="59" edge="1">
                    <mxGeometry relative="1" as="geometry"/>
                </mxCell>
                <mxCell id="58" value="Send after = số phút người dùng nhập" style="rounded=0;whiteSpace=wrap;html=1;strokeColor=#18F000;" parent="1" vertex="1">
                    <mxGeometry x="290" y="1330" width="120" height="60" as="geometry"/>
                </mxCell>
                <mxCell id="62" style="edgeStyle=none;html=1;strokeColor=#18F000;" parent="1" source="59" target="63" edge="1">
                    <mxGeometry relative="1" as="geometry">
                        <mxPoint x="560" y="1560" as="targetPoint"/>
                    </mxGeometry>
                </mxCell>
                <mxCell id="59" value="Email Approved" style="rounded=0;whiteSpace=wrap;html=1;strokeColor=#18F000;" parent="1" vertex="1">
                    <mxGeometry x="280" y="1530" width="120" height="60" as="geometry"/>
                </mxCell>
                <mxCell id="64" style="edgeStyle=none;html=1;strokeColor=#18F000;" parent="1" source="63" target="67" edge="1">
                    <mxGeometry relative="1" as="geometry">
                        <mxPoint x="680" y="1480.344827586207" as="targetPoint"/>
                    </mxGeometry>
                </mxCell>
                <mxCell id="65" value="true" style="edgeLabel;html=1;align=center;verticalAlign=middle;resizable=0;points=[];strokeColor=#18F000;" parent="64" vertex="1" connectable="0">
                    <mxGeometry x="0.3849" y="-1" relative="1" as="geometry">
                        <mxPoint as="offset"/>
                    </mxGeometry>
                </mxCell>
                <mxCell id="68" style="edgeStyle=none;html=1;strokeColor=#18F000;" parent="1" source="63" target="70" edge="1">
                    <mxGeometry relative="1" as="geometry">
                        <mxPoint x="740" y="1620" as="targetPoint"/>
                    </mxGeometry>
                </mxCell>
                <mxCell id="69" value="false" style="edgeLabel;html=1;align=center;verticalAlign=middle;resizable=0;points=[];strokeColor=#18F000;" parent="68" vertex="1" connectable="0">
                    <mxGeometry x="0.2028" y="-1" relative="1" as="geometry">
                        <mxPoint as="offset"/>
                    </mxGeometry>
                </mxCell>
                <mxCell id="63" value="Send_at &amp;gt; now" style="rhombus;whiteSpace=wrap;html=1;strokeColor=#18F000;" parent="1" vertex="1">
                    <mxGeometry x="520" y="1520" width="110" height="80" as="geometry"/>
                </mxCell>
                <mxCell id="87" style="edgeStyle=none;html=1;strokeColor=#18F000;" parent="1" source="67" target="89" edge="1">
                    <mxGeometry relative="1" as="geometry">
                        <mxPoint x="990" y="1460.004827586207" as="targetPoint"/>
                    </mxGeometry>
                </mxCell>
                <mxCell id="88" value="Ấn SEND" style="edgeLabel;html=1;align=center;verticalAlign=middle;resizable=0;points=[];strokeColor=#18F000;" parent="87" vertex="1" connectable="0">
                    <mxGeometry x="0.2706" y="-2" relative="1" as="geometry">
                        <mxPoint as="offset"/>
                    </mxGeometry>
                </mxCell>
                <mxCell id="90" style="edgeStyle=none;html=1;strokeColor=#18F000;" parent="1" source="67" target="92" edge="1">
                    <mxGeometry relative="1" as="geometry">
                        <mxPoint x="930" y="1370" as="targetPoint"/>
                    </mxGeometry>
                </mxCell>
                <mxCell id="91" value="Ấn undo" style="edgeLabel;html=1;align=center;verticalAlign=middle;resizable=0;points=[];strokeColor=#18F000;" parent="90" vertex="1" connectable="0">
                    <mxGeometry x="0.263" y="-3" relative="1" as="geometry">
                        <mxPoint x="-1" as="offset"/>
                    </mxGeometry>
                </mxCell>
                <mxCell id="67" value="Hiện undo và send now" style="rounded=0;whiteSpace=wrap;html=1;strokeColor=#18F000;" parent="1" vertex="1">
                    <mxGeometry x="660" y="1430.004827586207" width="120" height="60" as="geometry"/>
                </mxCell>
                <mxCell id="70" value="Không hiện thanh chọn undo và send now" style="rounded=0;whiteSpace=wrap;html=1;strokeColor=#18F000;" parent="1" vertex="1">
                    <mxGeometry x="720" y="1560" width="120" height="60" as="geometry"/>
                </mxCell>
                <mxCell id="79" style="edgeStyle=none;html=1;strokeColor=#18F000;" parent="1" source="75" target="80" edge="1">
                    <mxGeometry relative="1" as="geometry">
                        <mxPoint x="160" y="950" as="targetPoint"/>
                    </mxGeometry>
                </mxCell>
                <mxCell id="75" value="SHOW EMAIL APPROVED" style="whiteSpace=wrap;html=1;strokeColor=#18F000;" parent="1" vertex="1">
                    <mxGeometry x="270" y="930" width="120" height="60" as="geometry"/>
                </mxCell>
                <mxCell id="81" style="edgeStyle=none;html=1;strokeColor=#18F000;" parent="1" source="80" target="83" edge="1">
                    <mxGeometry relative="1" as="geometry">
                        <mxPoint x="120" y="740" as="targetPoint"/>
                    </mxGeometry>
                </mxCell>
                <mxCell id="82" value="True" style="edgeLabel;html=1;align=center;verticalAlign=middle;resizable=0;points=[];strokeColor=#18F000;" parent="81" vertex="1" connectable="0">
                    <mxGeometry x="0.4031" y="-4" relative="1" as="geometry">
                        <mxPoint as="offset"/>
                    </mxGeometry>
                </mxCell>
                <mxCell id="84" style="edgeStyle=none;html=1;strokeColor=#18F000;" parent="1" source="80" target="85" edge="1">
                    <mxGeometry relative="1" as="geometry">
                        <mxPoint x="-60" y="900" as="targetPoint"/>
                    </mxGeometry>
                </mxCell>
                <mxCell id="86" value="false" style="edgeLabel;html=1;align=center;verticalAlign=middle;resizable=0;points=[];strokeColor=#18F000;" parent="84" vertex="1" connectable="0">
                    <mxGeometry x="-0.415" y="4" relative="1" as="geometry">
                        <mxPoint as="offset"/>
                    </mxGeometry>
                </mxCell>
                <mxCell id="80" value="Send_at &amp;gt; now" style="rhombus;whiteSpace=wrap;html=1;strokeColor=#18F000;" parent="1" vertex="1">
                    <mxGeometry x="70" y="870" width="100" height="80" as="geometry"/>
                </mxCell>
                <mxCell id="83" value="Hiện Email sẽ được gửi trong send_at - now" style="rounded=0;whiteSpace=wrap;html=1;strokeColor=#18F000;" parent="1" vertex="1">
                    <mxGeometry x="60" y="710" width="120" height="60" as="geometry"/>
                </mxCell>
                <mxCell id="85" value="Hiện Email Đã được gửi" style="rounded=0;whiteSpace=wrap;html=1;strokeColor=#18F000;" parent="1" vertex="1">
                    <mxGeometry x="-120" y="810" width="120" height="60" as="geometry"/>
                </mxCell>
                <mxCell id="89" value="Gội API status = APPROVED, send_after=0" style="rounded=0;whiteSpace=wrap;html=1;strokeColor=#18F000;" parent="1" vertex="1">
                    <mxGeometry x="960" y="1430.004827586207" width="120" height="60" as="geometry"/>
                </mxCell>
                <mxCell id="92" value="" style="rounded=0;whiteSpace=wrap;html=1;strokeColor=#18F000;" parent="1" vertex="1">
                    <mxGeometry x="960" y="1330" width="120" height="60" as="geometry"/>
                </mxCell>
            </root>
        </mxGraphModel>
    </diagram>
</mxfile>